<svg width="152.187500" height="174.000000" viewBox="0 0 152.188 174" fill="none" xmlns="http://www.w3.org/2000/svg" xmlns:xlink="http://www.w3.org/1999/xlink">
	<desc>
			Created with Pixso.
	</desc>
	<defs/>
	<path id="Best tour plan" d="" fill="#333333" fill-opacity="1.000000" fill-rule="evenodd"/>
	<path id="Best tour plan" d="M151.76 83.85Q152.18 81.87 152.18 79.43Q152.18 75.53 150.64 72.59Q149.64 70.69 148.21 69.19Q147.43 68.38 146.53 67.68Q143.96 65.71 140.64 64.73Q140.02 64.55 139.4 64.4Q136.65 63.75 133.75 63.75Q131.43 63.75 129.23 63.85Q127.03 63.96 124.89 64.26Q122.75 64.56 120.62 65.09Q118.5 65.62 116.31 66.43Q116.12 70.03 116.06 73.56Q116 77.09 115.93 80.68Q115.75 87.81 115.6 94.87Q115.46 101.93 115.31 109.06L128.75 109.06L129.31 96.06L133.18 95.93L138 109.25L152.06 106.5L144.62 93.25Q146.65 91.96 148.09 90.56Q149.53 89.15 150.43 87.5Q151.34 85.84 151.76 83.85ZM34.12 78.75L34.43 65.5L0.37 65.56L0 80.31L9.31 79.81L10.5 108.81L23.68 108.12L24.81 79.12L34.12 78.75ZM111.28 87.45Q112.28 76.56 113.68 65.56Q112.09 65.65 110.51 65.67Q108.93 65.68 107.37 65.68Q105.34 65.68 103.34 65.65Q101.34 65.62 99.31 65.56Q99.37 66.18 99.4 66.78Q99.43 67.37 99.43 68Q99.43 68.96 99.39 70.71Q99.34 72.46 99.23 74.67Q99.12 76.87 98.9 79.37Q98.68 81.87 98.32 84.32Q97.96 86.78 97.45 89.03Q96.93 91.28 96.21 93Q95.5 94.71 94.56 95.73Q93.87 96.47 93.06 96.67Q92.75 96.75 92.43 96.75Q91.98 96.75 91.62 96.56Q91.18 96.34 90.89 95.85Q90.34 94.96 90.07 93.78Q89.97 93.3 89.89 92.82Q89.78 92.1 89.75 91.37Q89.68 90.15 89.68 89.5Q89.68 86.65 90.03 83.87Q90.37 81.09 90.93 78.32Q91.13 77.35 91.35 76.37Q91.74 74.59 92.2 72.82Q92.9 70.09 93.62 67.37Q89.81 67.43 85.96 67.28Q82.12 67.12 78.31 66.93Q77.62 69.65 77.17 72.62Q76.71 75.59 76.43 78.62Q76.15 81.65 76.04 84.67Q75.93 87.68 75.93 90.5Q75.93 92.4 76.39 94.43Q76.84 96.46 77.7 98.42Q77.84 98.73 77.99 99.05Q78.76 100.66 79.81 102.14Q81.06 103.9 82.62 105.23Q83.51 105.99 84.51 106.58Q85.26 107.01 86.06 107.35Q86.47 107.53 86.89 107.67Q88.4 108.16 90.06 108.18Q90.96 108.21 91.96 108.07Q92.89 107.94 93.76 107.65Q93.83 107.63 93.9 107.6Q94.53 107.38 95.12 107.07Q95.4 106.92 95.67 106.75Q96.41 106.27 96.99 105.64Q97.06 105.57 97.12 105.5L96.56 110.31L109.37 109.37Q110.28 98.34 111.28 87.45ZM73.59 91.1Q74.25 88.46 74.25 85.62Q74.25 81.06 72.79 77.35Q71.5 74.05 69.26 71.62Q68.98 71.32 68.7 71.04Q68.45 70.79 68.19 70.56Q65.7 68.3 62.32 67.03Q58.59 65.62 54.06 65.62Q51.25 65.62 48.71 66.4Q46.66 67.03 44.85 68.08Q44.42 68.32 44.01 68.59Q43.21 69.11 42.47 69.69Q41.2 70.71 40.09 71.93Q39.33 72.77 38.67 73.68Q37.81 74.87 37.1 76.18Q37.03 76.33 36.95 76.48Q35.83 78.66 35.21 81.1Q35 81.96 34.85 82.83Q34.56 84.61 34.56 86.43Q34.56 89.21 35.26 91.78Q35.96 94.34 37.23 96.57Q37.9 97.75 38.71 98.81Q39.44 99.77 40.29 100.64Q41.12 101.48 42.05 102.22Q43.12 103.06 44.31 103.76Q44.42 103.82 44.53 103.89Q46.65 105.09 49.07 105.78Q51.62 106.5 54.43 106.5Q57.34 106.5 59.93 105.73Q62.53 104.96 64.73 103.59Q65.68 103 66.55 102.3Q67.7 101.38 68.7 100.29Q69.46 99.46 70.12 98.56Q71 97.37 71.7 96.06Q72.93 93.75 73.59 91.1ZM137.82 78.03Q138.18 79.12 138.18 80.43Q138.18 81.99 137.48 83.11L137.48 83.12Q137.11 83.7 136.64 84.18Q136.2 84.62 135.67 84.96Q134.56 85.68 133.17 86.03Q131.78 86.37 130.43 86.37L129.68 86.37L130.18 74.75Q130.75 74.59 131.34 74.51Q131.93 74.43 132.56 74.43Q133.96 74.43 135.01 74.89Q135.92 75.28 136.56 75.92Q136.67 76.03 136.76 76.14Q136.78 76.16 136.8 76.18Q137.47 76.96 137.82 78.03ZM60.2 84.69Q60.37 85.54 60.37 86.43Q60.37 87.32 60.19 88.16Q60.09 88.63 59.93 89.09Q59.52 90.3 58.77 91.25Q58.73 91.3 58.68 91.35Q58.38 91.72 58.04 92.02Q57.44 92.55 56.7 92.92Q55.53 93.5 54.06 93.5Q52.67 93.5 51.61 92.91Q51.54 92.88 51.48 92.84Q50.98 92.54 50.56 92.17Q50.03 91.71 49.62 91.12Q49.56 91.04 49.51 90.96Q48.84 89.96 48.5 88.75Q48.12 87.43 48.12 86.12Q48.12 84.86 48.49 83.72Q48.52 83.61 48.56 83.51Q48.93 82.45 49.6 81.62Q49.71 81.48 49.82 81.35Q50.1 81.04 50.42 80.77Q51.04 80.25 51.81 79.9Q52.96 79.37 54.43 79.37Q55.85 79.37 56.95 79.96Q56.96 79.97 56.98 79.98Q57.68 80.36 58.24 80.9Q58.56 81.21 58.84 81.57Q59.59 82.56 59.98 83.82Q60.11 84.25 60.2 84.69Z" fill="#EC1F46" fill-opacity="1.000000" fill-rule="evenodd"/>
	<path id="Best tour plan" d="M36.76 38.9Q37.71 37.03 37.71 34.43Q37.71 32.34 37.07 30.5Q36.54 28.96 35.64 27.69Q35.46 27.43 35.26 27.18Q35.11 26.99 34.95 26.81Q33.87 25.58 32.42 24.68Q30.75 23.65 28.71 23.12Q30.4 22.71 31.75 21.85Q32.83 21.16 33.65 20.24Q33.84 20.01 34.03 19.78Q34.12 19.65 34.21 19.53Q35.01 18.4 35.46 17.03Q35.96 15.5 35.96 13.75Q35.96 11.09 35.2 9.06Q34.49 7.17 33.26 5.71Q33.17 5.6 33.07 5.5Q32.68 5.06 32.26 4.66Q31.2 3.66 29.9 2.92Q28.09 1.87 26 1.21Q23.9 0.56 21.64 0.28Q19.37 0 17.15 0Q15.25 0 13.21 0.2Q11.18 0.4 9.14 0.79Q7.09 1.18 5.12 1.76Q3.15 2.34 1.4 3.06L1.46 43.31Q3.25 44.18 5.25 44.76Q5.6 44.86 5.96 44.96Q7.61 45.4 9.31 45.68Q11.18 45.99 13.06 46.14Q13.25 46.15 13.45 46.17Q15.53 46.31 17.46 46.31Q19.43 46.31 21.7 46.15Q23.96 46 26.21 45.53Q28.46 45.06 30.54 44.23Q32.62 43.4 34.21 42.09Q34.83 41.58 35.36 40.98Q36.18 40.05 36.76 38.9ZM73.28 25.75Q73.65 23.03 73.65 20.31Q73.65 17.75 73.23 15.26Q72.81 12.78 71.95 10.54Q71.09 8.31 69.76 6.43Q68.82 5.1 67.64 4.03Q67.16 3.59 66.64 3.2Q64.84 1.84 62.54 1.07Q60.25 0.31 57.46 0.31Q54.12 0.31 51.35 1.28Q48.66 2.22 46.52 3.87Q46.46 3.92 46.4 3.96Q45.7 4.51 45.06 5.12Q43.69 6.42 42.57 7.98Q42.48 8.1 42.4 8.23Q40.87 10.42 39.85 12.96Q39.85 12.98 39.84 12.99Q38.77 15.67 38.25 18.56Q37.71 21.46 37.71 24.37Q37.71 26.06 37.91 27.73Q38.04 28.8 38.25 29.87Q38.78 32.59 39.81 35.03Q40.7 37.14 41.99 38.97Q42.19 39.25 42.4 39.53Q43.29 40.7 44.35 41.7Q45.15 42.45 46.04 43.1Q46.08 43.13 46.11 43.16Q48.16 44.63 50.68 45.46Q53.25 46.31 56.34 46.31Q57.84 46.31 59.4 46.12Q59.65 46.09 59.9 46.05Q61.21 45.87 62.5 45.53Q63.85 45.17 65.12 44.61Q65.29 44.54 65.45 44.46Q66.68 43.9 67.76 43.12Q67.93 43 68.09 42.87L69.59 28.68Q68.62 29.34 67.28 30.15Q65.93 30.96 64.46 31.67Q63 32.37 61.51 32.84Q60.03 33.31 58.78 33.31Q57.05 33.31 55.67 32.62Q55.13 32.34 54.64 31.96Q54.24 31.66 53.89 31.3Q52.72 30.11 52.09 28.37Q57.37 27.62 62.65 26.85Q67.93 26.09 73.28 25.75ZM106.23 36.95Q107.71 33.84 107.71 29.56Q107.71 27.06 106.98 24.98Q106.29 23.02 105.02 21.58Q104.94 21.49 104.85 21.4Q104.77 21.31 104.69 21.22Q103.34 19.85 101.46 19Q99.46 18.09 96.96 17.93Q96.46 17.9 95.68 17.95Q94.9 18 94 18.04Q93.09 18.09 92.17 18.09Q91.25 18.09 90.48 17.92Q89.71 17.75 89.23 17.37Q89.07 17.24 88.95 17.08Q88.73 16.76 88.71 16.31Q88.69 15.93 88.82 15.62Q88.9 15.44 89.03 15.28Q89.37 14.84 89.93 14.57Q90.5 14.31 91.21 14.15Q91.93 14 92.64 13.92Q93.34 13.84 93.98 13.82Q94.62 13.81 95.03 13.81Q97.25 13.81 99.57 14.29Q101.9 14.78 104.03 15.5L105.21 2.81Q103.84 2.15 102.31 1.71Q100.78 1.28 99.17 1Q97.91 0.78 96.65 0.66Q96.29 0.63 95.93 0.6Q94.31 0.5 92.78 0.5Q90.7 0.5 88.7 0.89Q87.39 1.16 86.12 1.59Q83.18 2.59 80.86 4.38Q80.63 4.55 80.42 4.73Q79.44 5.53 78.62 6.47Q77.35 7.92 76.45 9.7Q74.96 12.62 74.96 16.31Q74.96 19 75.84 21.2Q76.62 23.18 77.98 24.63Q78.13 24.79 78.29 24.95Q78.47 25.13 78.66 25.29Q80.12 26.59 82.07 27.34Q84.28 28.18 86.96 28.18L87.96 28.18Q88.59 28.18 89.31 28.25Q90.03 28.31 90.78 28.45Q91.53 28.59 92.12 28.85Q92.71 29.12 93.09 29.54Q93.24 29.71 93.33 29.91Q93.46 30.2 93.46 30.56Q93.46 31.25 93.13 31.69Q93.04 31.81 92.93 31.9Q92.4 32.37 91.64 32.6Q90.87 32.84 90.03 32.89Q89.18 32.93 88.59 32.93Q85.46 32.93 82.23 32.1Q79 31.28 76.34 29.68L74.96 41.93Q76.31 42.56 78.04 43.26Q79.78 43.96 81.65 44.57Q83.53 45.18 85.35 45.59Q87.18 46 88.71 46Q92.68 46 96.14 45.04Q99.59 44.09 102.17 42.07Q102.83 41.55 103.42 40.96Q105.13 39.26 106.23 36.95ZM141.75 14.75L142.06 1.5L108 1.56L107.62 16.31L116.93 15.81L118.12 44.81L131.31 44.12L132.43 15.12L141.75 14.75ZM21.46 15.07Q21.84 15.71 21.84 16.62Q21.84 18.06 21.15 18.89Q20.79 19.32 20.35 19.64Q19.95 19.93 19.48 20.14Q18.97 20.35 18.45 20.49Q17.95 20.62 17.43 20.68Q16.37 20.81 15.65 20.81L15.84 13.87Q16.4 13.62 17 13.43Q17.27 13.35 17.55 13.3Q17.88 13.25 18.21 13.25Q18.71 13.25 19.35 13.43Q19.57 13.5 19.77 13.58Q20.18 13.76 20.54 14.03Q21.09 14.43 21.46 15.07ZM60.96 16.89Q61.15 17.81 61.15 18.68L61.15 19.37L51.9 20.25Q52.12 19.25 52.56 18.06Q53 16.87 53.68 15.85Q54.29 14.96 55.1 14.33Q55.21 14.25 55.32 14.17Q55.62 13.96 55.95 13.81Q56.67 13.5 57.53 13.5Q58.56 13.5 59.25 13.98Q59.51 14.16 59.73 14.39Q60.09 14.75 60.35 15.21Q60.78 15.96 60.96 16.89ZM15.65 27Q16.5 26.81 17.4 26.81Q18.06 26.81 18.84 26.95Q19.32 27.03 19.75 27.23Q20.02 27.35 20.28 27.51Q20.93 27.93 21.39 28.68Q21.84 29.43 21.84 30.62Q21.84 31.81 21.39 32.53Q21.05 33.06 20.58 33.44Q20.42 33.56 20.25 33.67Q19.82 33.93 19.36 34.08Q19.08 34.18 18.78 34.23Q18 34.37 17.34 34.37Q16.9 34.37 16.45 34.29Q16 34.21 15.53 34.12L15.65 27ZM147.17 164.73Q147.25 161.28 147.25 157.75L147.25 153.59Q147.25 151.31 147.14 148.87Q147.03 146.43 146.71 143.92Q146.4 141.4 145.81 139.09Q145.21 136.78 144.25 134.73Q143.28 132.68 141.84 131.18Q141.58 130.91 141.3 130.66Q140.04 129.52 138.4 128.81Q136.4 127.93 133.75 127.93Q132.31 127.93 131.01 128.32Q130.06 128.61 129.18 129.05Q128.87 129.21 128.56 129.39Q127.4 130.06 126.39 131Q125.65 131.67 124.99 132.42Q124.74 132.7 124.5 133L124.62 128L109.87 128.75Q109.53 139.78 108.95 150.68Q108.37 161.59 107.75 172.62L123.68 171.93Q123.84 166.37 123.93 160.92Q124.03 155.46 124.18 149.93Q124.18 149.25 124.23 148.17Q124.28 147.09 124.42 145.87Q124.56 144.65 124.84 143.43Q125.12 142.21 125.6 141.23Q126.09 140.25 126.82 139.62Q127.04 139.43 127.29 139.3Q127.88 139 128.62 139Q128.76 139 128.89 139.03Q129.31 139.14 129.64 139.64Q130.06 140.28 130.35 141.28Q130.65 142.28 130.82 143.48Q131 144.68 131.09 145.82Q131.18 146.96 131.21 147.87Q131.25 148.78 131.25 149.18Q131.25 154.81 130.56 160.32Q129.87 165.84 128.93 171.37L146.93 171.68Q147.09 168.18 147.17 164.73ZM65.62 170.87L66.93 157L54.25 157L56.56 128.31L40.31 128.31L39.31 172.93L65.62 170.87ZM92.31 172.87L107.81 170.87L95.62 128.81L78.25 129.68L65.81 171.31L81.75 172.87L83.31 165.81L90.43 165.81L92.31 172.87ZM36.84 150.12Q37.75 147.78 37.75 144.75Q37.75 142 36.95 139.75Q36.15 137.5 34.78 135.75Q34.4 135.26 33.97 134.81Q32.88 133.64 31.51 132.73Q29.62 131.46 27.42 130.62Q25.21 129.78 22.81 129.39Q20.4 129 18 129Q13.75 129 9.75 129.59Q5.75 130.18 1.75 131.37Q1.56 135.25 1.59 139.06Q1.6 140.33 1.6 141.6Q1.6 144.14 1.56 146.68Q1.53 150.28 1.51 153.65Q1.5 157.03 1.48 160.35Q1.46 163.68 1.45 167.06Q1.43 170.43 1.43 174L16 174L16 160.68Q18.5 160.65 21.09 160.29Q23.68 159.93 26.1 159.17Q28.53 158.4 30.65 157.2Q32.33 156.25 33.66 154.95Q34.02 154.6 34.35 154.23Q34.43 154.14 34.51 154.05Q35.98 152.35 36.84 150.12ZM23.12 143.18Q23.87 144.22 23.87 145.81Q23.87 146.95 23.42 147.87Q23.4 147.91 23.39 147.95Q23.16 148.39 22.86 148.78Q22.52 149.23 22.09 149.6Q21.89 149.78 21.67 149.93Q21.02 150.4 20.23 150.68Q19.81 150.83 19.38 150.92Q18.73 151.06 18.06 151.06L17.21 151.06Q16.81 151.06 16.37 151L16.75 141.87Q17.37 141.71 18.07 141.6Q18.78 141.5 19.43 141.5Q20.98 141.5 22.07 142.2Q22.37 142.39 22.64 142.64Q22.91 142.89 23.12 143.18ZM86.93 145.37L89.31 156.25L84.62 156.25L86.93 145.37Z" fill="#FFFFFF" fill-opacity="1.000000" fill-rule="evenodd"/>
</svg>
