<svg width="16.033569" height="15.999664" viewBox="0 0 16.0336 15.9997" fill="none" xmlns="http://www.w3.org/2000/svg" xmlns:xlink="http://www.w3.org/1999/xlink">
	<desc>
			Created with Pixso.
	</desc>
	<defs/>
	<path d="M9.48 7.99L15.72 1.76C16.13 1.36 16.13 0.7 15.72 0.3C15.32 -0.11 14.66 -0.11 14.26 0.3L8.01 6.53L1.77 0.3C1.36 -0.11 0.71 -0.11 0.3 0.3C-0.11 0.7 -0.11 1.36 0.3 1.76L6.54 7.99L0.3 14.23C-0.11 14.63 -0.11 15.29 0.3 15.69C0.5 15.89 0.77 15.99 1.03 15.99C1.3 15.99 1.57 15.89 1.77 15.69L8.01 9.46L14.26 15.69C14.46 15.89 14.72 15.99 14.99 15.99C15.26 15.99 15.52 15.89 15.72 15.69C16.13 15.29 16.13 14.63 15.72 14.23L9.48 7.99Z" fill="#FFFFFF" fill-opacity="1.000000" fill-rule="nonzero"/>
</svg>
