<svg width="19.998047" height="19.877930" viewBox="0 0 19.998 19.8779" fill="none" xmlns="http://www.w3.org/2000/svg" xmlns:xlink="http://www.w3.org/1999/xlink">
	<desc>
			Created with Pixso.
	</desc>
	<defs/>
	<path d="M9.99 0C4.47 0 0 4.47 0 9.99C0 14.98 3.65 19.12 8.43 19.87L8.43 12.89L5.89 12.89L5.89 9.99L8.43 9.99L8.43 7.79C8.43 5.28 9.92 3.9 12.21 3.9C13.3 3.9 14.45 4.09 14.45 4.09L14.45 6.55L13.18 6.55C11.94 6.55 11.56 7.33 11.56 8.12L11.56 9.99L14.33 9.99L13.88 12.88L11.56 12.88L11.56 19.87C16.34 19.12 19.99 14.99 19.99 9.99C19.99 4.47 15.52 0 9.99 0Z" fill="#BDBDBD" fill-opacity="1.000000" fill-rule="nonzero"/>
</svg>
