<svg width="18.208618" height="18.208496" viewBox="0 0 18.2086 18.2085" fill="none" xmlns="http://www.w3.org/2000/svg" xmlns:xlink="http://www.w3.org/1999/xlink">
	<desc>
			Created with Pixso.
	</desc>
	<defs/>
	<path id="Форма 1" d="M18.2 8.62L16.29 8.62C16.29 4.73 13.46 1.91 9.57 1.91L9.57 0C14.49 0 18.2 3.7 18.2 8.62ZM12.18 10.71C12.43 10.7 12.67 10.79 12.86 10.96L16.75 14.5C16.94 14.67 17.05 14.9 17.06 15.15C17.08 15.4 17 15.65 16.84 15.84L15.05 17.92C14.89 18.08 14.67 18.18 14.43 18.2C14.4 18.2 14.28 18.2 14.09 18.2C12.76 18.2 7.95 17.92 4.12 14.08C-0.29 9.68 -0.01 4.01 0 3.77C0.02 3.53 0.12 3.31 0.28 3.15L2.36 1.36C2.55 1.2 2.79 1.12 3.04 1.13C3.29 1.15 3.53 1.26 3.69 1.44L7.23 5.34C7.4 5.52 7.49 5.76 7.48 6.01C7.48 6.26 7.37 6.5 7.19 6.67L4.84 8.97C4.94 9.51 5.29 10.63 6.43 11.77C7.57 12.91 8.68 13.26 9.23 13.36L11.53 11C11.7 10.82 11.93 10.72 12.18 10.71ZM12.45 8.62C12.45 6.6 11.59 5.75 9.58 5.75L9.58 3.83C12.67 3.83 14.37 5.53 14.37 8.62L12.45 8.62Z" fill="#BDBDBD" fill-opacity="1.000000" fill-rule="evenodd"/>
</svg>
