<svg width="16.666626" height="13.333252" viewBox="0 0 16.6666 13.3333" fill="none" xmlns="http://www.w3.org/2000/svg" xmlns:xlink="http://www.w3.org/1999/xlink">
	<desc>
			Created with Pixso.
	</desc>
	<defs/>
	<path id="Vector" d="M15 0L1.66 0C0.75 0 0 0.75 0 1.66L0 11.66C0 12.58 0.75 13.33 1.66 13.33L15 13.33C15.91 13.33 16.66 12.58 16.66 11.66L16.66 1.66C16.66 0.75 15.91 0 15 0ZM14.66 3.54L8.77 7.22C8.5 7.39 8.15 7.39 7.89 7.22L2 3.54C1.91 3.49 1.84 3.43 1.78 3.35C1.72 3.27 1.68 3.19 1.66 3.09C1.63 3 1.63 2.9 1.64 2.81C1.66 2.72 1.69 2.62 1.74 2.54C1.79 2.46 1.86 2.39 1.94 2.34C2.02 2.28 2.1 2.24 2.2 2.23C2.29 2.21 2.39 2.21 2.48 2.22C2.58 2.24 2.67 2.28 2.75 2.34L8.33 5.83L13.91 2.34C13.99 2.28 14.08 2.24 14.17 2.22C14.27 2.21 14.36 2.21 14.46 2.23C14.55 2.24 14.64 2.28 14.72 2.34C14.8 2.39 14.86 2.46 14.92 2.54C14.97 2.62 15 2.72 15.01 2.81C15.03 2.9 15.02 3 15 3.09C14.98 3.19 14.94 3.27 14.88 3.35C14.82 3.43 14.75 3.49 14.66 3.54Z" fill="#BDBDBD" fill-opacity="1.000000" fill-rule="nonzero"/>
</svg>
