<svg width="20.000000" height="20.000000" viewBox="0 0 20 20" fill="none" xmlns="http://www.w3.org/2000/svg" xmlns:xlink="http://www.w3.org/1999/xlink">
	<desc>
			Created with Pixso.
	</desc>
	<defs/>
	<path d="M10 20C8.64 20 7.35 19.73 6.11 19.2C4.87 18.68 3.81 17.97 2.91 17.08C2.02 16.18 1.31 15.12 0.79 13.88C0.26 12.64 0 11.35 0 10C0 8.64 0.26 7.35 0.79 6.11C1.31 4.87 2.02 3.81 2.91 2.91C3.81 2.02 4.87 1.31 6.11 0.79C7.35 0.26 8.64 0 10 0C11.35 0 12.64 0.26 13.88 0.79C15.12 1.31 16.18 2.02 17.08 2.91C17.97 3.81 18.68 4.87 19.2 6.11C19.73 7.35 20 8.64 20 10C20 11.35 19.73 12.64 19.2 13.88C18.68 15.12 17.97 16.18 17.08 17.08C16.18 17.97 15.12 18.68 13.88 19.2C12.64 19.73 11.35 20 10 20ZM15 6.25C15 5.91 14.87 5.61 14.63 5.37C14.39 5.12 14.1 5 13.75 5L6.25 5C5.91 5 5.61 5.12 5.37 5.37C5.12 5.61 5 5.91 5 6.25L5 7.5L7.22 7.5C7.98 6.66 8.9 6.25 10 6.25C11.09 6.25 12.01 6.66 12.77 7.5L15 7.5L15 6.25ZM7.5 10C7.5 10.69 7.74 11.27 8.23 11.76C8.72 12.25 9.3 12.5 10 12.5C10.69 12.5 11.27 12.25 11.76 11.76C12.25 11.27 12.5 10.69 12.5 10C12.5 9.3 12.25 8.72 11.76 8.23C11.27 7.74 10.69 7.5 10 7.5C9.3 7.5 8.72 7.74 8.23 8.23C7.74 8.72 7.5 9.3 7.5 10ZM15 8.75L13.51 8.75C13.67 9.17 13.75 9.59 13.75 10C13.75 11.04 13.38 11.92 12.65 12.65C11.92 13.38 11.04 13.75 10 13.75C8.95 13.75 8.07 13.38 7.34 12.65C6.61 11.92 6.25 11.04 6.25 10C6.25 9.59 6.32 9.17 6.48 8.75L5 8.75L5 13.75C5 14.1 5.12 14.39 5.36 14.63C5.6 14.87 5.89 15 6.25 15L13.75 15C14.1 15 14.39 14.87 14.63 14.63C14.87 14.39 15 14.1 15 13.75L15 8.75Z" fill="#BDBDBD" fill-opacity="1.000000" fill-rule="nonzero"/>
</svg>
