<svg width="14.000000" height="19.470215" viewBox="0 0 14 19.4702" fill="none" xmlns="http://www.w3.org/2000/svg" xmlns:xlink="http://www.w3.org/1999/xlink">
	<desc>
			Created with Pixso.
	</desc>
	<defs/>
	<path id="Vector" d="M7 0C3.13 0 0 3.12 0 7C0 11.16 4.42 16.91 6.23 19.11C6.64 19.59 7.37 19.59 7.77 19.11C9.57 16.91 14 11.16 14 7C14 3.12 10.87 0 7 0ZM7 9.5C6.33 9.5 5.7 9.23 5.23 8.76C4.76 8.29 4.5 7.66 4.5 7C4.5 6.33 4.76 5.7 5.23 5.23C5.7 4.76 6.33 4.5 7 4.5C7.66 4.5 8.29 4.76 8.76 5.23C9.23 5.7 9.5 6.33 9.5 7C9.5 7.66 9.23 8.29 8.76 8.76C8.29 9.23 7.66 9.5 7 9.5Z" fill="#BDBDBD" fill-opacity="1.000000" fill-rule="nonzero"/>
</svg>
