<svg width="20.159912" height="20.159912" viewBox="0 0 20.1599 20.1599" fill="none" xmlns="http://www.w3.org/2000/svg" xmlns:xlink="http://www.w3.org/1999/xlink">
	<desc>
			Created with Pixso.
	</desc>
	<defs/>
	<path d="M11.76 9.9L9.4 8.8C9.19 8.7 9.03 8.81 9.03 9.04L9.03 11.11C9.03 11.34 9.19 11.45 9.4 11.35L11.76 10.25C11.96 10.15 11.96 10 11.76 9.9ZM10.08 0C4.51 0 0 4.51 0 10.08C0 15.64 4.51 20.15 10.08 20.15C15.64 20.15 20.15 15.64 20.15 10.08C20.15 4.51 15.64 0 10.08 0ZM10.08 14.17C4.92 14.17 4.83 13.7 4.83 10.08C4.83 6.45 4.92 5.98 10.08 5.98C15.23 5.98 15.33 6.45 15.33 10.08C15.33 13.7 15.23 14.17 10.08 14.17Z" fill="#BDBDBD" fill-opacity="1.000000" fill-rule="nonzero"/>
</svg>
