<svg width="14.000000" height="14.000000" viewBox="0 0 14 14" fill="none" xmlns="http://www.w3.org/2000/svg" xmlns:xlink="http://www.w3.org/1999/xlink">
	<desc>
			Created with Pixso.
	</desc>
	<defs>
		<clipPath id="clip11_306">
			<rect id="home" width="14.000000" height="14.000000" fill="white" fill-opacity="0"/>
		</clipPath>
	</defs>
	<rect id="home" width="14.000000" height="14.000000" fill="#FFFFFF" fill-opacity="0"/>
	<g clip-path="url(#clip11_306)">
		<path id="Vector" d="M7.35 0.7C7.14 0.54 6.85 0.54 6.64 0.7L1.39 4.78C1.24 4.9 1.16 5.07 1.16 5.25L1.16 11.66C1.16 12.13 1.35 12.57 1.67 12.9C2 13.23 2.45 13.41 2.91 13.41L11.08 13.41C11.54 13.41 11.99 13.23 12.32 12.9C12.64 12.57 12.83 12.13 12.83 11.66L12.83 5.25C12.83 5.07 12.75 4.9 12.6 4.78L7.35 0.7ZM9.33 12.25L11.08 12.25C11.23 12.25 11.38 12.18 11.49 12.07C11.6 11.96 11.66 11.82 11.66 11.66L11.66 5.53L6.99 1.9L2.33 5.53L2.33 11.66C2.33 11.82 2.39 11.96 2.5 12.07C2.61 12.18 2.76 12.25 2.91 12.25L4.66 12.25L4.66 7C4.66 6.67 4.92 6.41 5.24 6.41L8.74 6.41C9.07 6.41 9.33 6.67 9.33 7L9.33 12.25ZM5.83 12.25L5.83 7.58L8.16 7.58L8.16 12.25L5.83 12.25Z" fill="#FFFFFF" fill-opacity="1.000000" fill-rule="evenodd"/>
	</g>
</svg>
