<svg width="13.309082" height="13.416667" viewBox="0 0 13.3091 13.4167" fill="none" xmlns="http://www.w3.org/2000/svg" xmlns:xlink="http://www.w3.org/1999/xlink">
	<desc>
			Created with Pixso.
	</desc>
	<defs/>
	<path id="Vector" d="M11.02 13.41C10.96 13.41 10.9 13.41 10.85 13.41C8.98 13.18 7.11 12.54 5.54 11.55C4.08 10.61 2.8 9.33 1.86 7.87C0.81 6.3 0.17 4.43 0 2.56C0 2.09 0.11 1.63 0.4 1.28C0.69 0.93 1.1 0.7 1.57 0.64C1.63 0.64 1.69 0.64 1.75 0.64L3.5 0.64C4.37 0.64 5.13 1.28 5.25 2.15C5.3 2.68 5.42 3.2 5.6 3.67C5.83 4.31 5.65 5.01 5.19 5.54L4.78 5.95C5.48 7 6.35 7.93 7.46 8.63L7.87 8.22C8.34 7.75 9.1 7.58 9.74 7.81C10.2 7.99 10.73 8.1 11.25 8.16C12.13 8.28 12.77 9.04 12.77 9.91L12.77 11.66C12.77 12.13 12.6 12.6 12.25 12.89C11.89 13.18 11.49 13.41 11.02 13.41ZM3.5 1.8L1.75 1.8C1.57 1.8 1.39 1.92 1.28 2.04C1.22 2.15 1.16 2.27 1.16 2.45C1.34 4.14 1.92 5.77 2.85 7.23C3.73 8.57 4.84 9.74 6.18 10.55C7.64 11.49 9.27 12.07 10.96 12.25C11.2 12.25 11.31 12.19 11.43 12.07C11.55 11.95 11.6 11.84 11.6 11.66L11.6 9.91C11.6 9.62 11.37 9.39 11.08 9.33C10.5 9.27 9.91 9.1 9.33 8.86C9.1 8.8 8.86 8.8 8.69 8.98L7.93 9.74C7.75 9.91 7.46 9.97 7.23 9.85C5.65 8.98 4.37 7.7 3.5 6.12C3.44 5.89 3.5 5.6 3.67 5.42L4.43 4.66C4.55 4.55 4.6 4.25 4.55 4.08C4.31 3.5 4.19 2.91 4.08 2.33C4.08 2.04 3.79 1.8 3.5 1.8ZM10.44 5.89C10.14 5.89 9.91 5.71 9.85 5.42C9.68 4.49 8.92 3.79 7.99 3.55C7.69 3.5 7.46 3.2 7.52 2.85C7.58 2.56 7.87 2.33 8.22 2.39C9.62 2.68 10.73 3.73 10.96 5.13C11.02 5.42 10.85 5.77 10.5 5.83C10.5 5.83 10.5 5.89 10.44 5.89ZM12.77 5.83C12.48 5.83 12.25 5.6 12.19 5.3C11.95 3.15 10.26 1.45 8.05 1.16C7.75 1.1 7.52 0.81 7.52 0.52C7.52 0.23 7.87 0 8.16 0C10.9 0.29 13 2.39 13.3 5.13C13.35 5.42 13.12 5.71 12.77 5.77C12.83 5.83 12.77 5.83 12.77 5.83Z" fill="#FFFFFF" fill-opacity="1.000000" fill-rule="nonzero"/>
</svg>
