<svg width="8.000000" height="8.000000" viewBox="0 0 8 8" fill="none" xmlns="http://www.w3.org/2000/svg" xmlns:xlink="http://www.w3.org/1999/xlink">
	<desc>
			Created with Pixso.
	</desc>
	<defs>
		<clipPath id="clip11_268">
			<rect width="8.000000" height="8.000000" fill="white" fill-opacity="0"/>
		</clipPath>
	</defs>
	<rect width="8.000000" height="8.000000" fill="#FFFFFF" fill-opacity="0"/>
	<g clip-path="url(#clip11_268)">
		<path d="M4 0.33C4.12 0.33 4.24 0.4 4.29 0.51L5.25 2.44L7.38 2.76C7.5 2.77 7.61 2.86 7.65 2.98C7.68 3.1 7.65 3.24 7.56 3.32L6.02 4.82L6.38 6.95C6.41 7.07 6.35 7.2 6.25 7.27C6.15 7.35 6.01 7.36 5.9 7.3L4 6.29L2.09 7.3C1.98 7.36 1.84 7.35 1.74 7.27C1.64 7.2 1.59 7.07 1.61 6.95L1.97 4.82L0.43 3.32C0.34 3.24 0.31 3.1 0.34 2.98C0.38 2.86 0.49 2.77 0.61 2.76L2.74 2.44L3.7 0.51C3.75 0.4 3.87 0.33 4 0.33ZM4 1.41L3.26 2.9C3.22 2.99 3.12 3.06 3.01 3.08L1.38 3.32L2.56 4.47C2.64 4.55 2.68 4.66 2.66 4.76L2.38 6.39L3.84 5.62C3.94 5.57 4.05 5.57 4.15 5.62L5.61 6.39L5.33 4.76C5.31 4.66 5.35 4.55 5.43 4.47L6.61 3.32L4.98 3.08C4.87 3.06 4.77 2.99 4.73 2.9L4 1.41Z" fill="#F2994A" fill-opacity="1.000000" fill-rule="evenodd"/>
	</g>
	<path d="M1 3L2.33 5L2 7L4 6L6 7L5.66 4.66L7 3.33L5 2.66L4 1L3 2.66L1 3Z" fill="#F2994A" fill-opacity="1.000000" fill-rule="evenodd"/>
</svg>
