<svg width="14.000000" height="14.000000" viewBox="0 0 14 14" fill="none" xmlns="http://www.w3.org/2000/svg" xmlns:xlink="http://www.w3.org/1999/xlink">
	<desc>
			Created with Pixso.
	</desc>
	<defs>
		<clipPath id="clip11_303">
			<rect id="user" width="14.000000" height="14.000000" fill="white" fill-opacity="0"/>
		</clipPath>
	</defs>
	<rect id="user" width="14.000000" height="14.000000" fill="#FFFFFF" fill-opacity="0"/>
	<g clip-path="url(#clip11_303)">
		<path id="Vector (Stroke)" d="M2.6 9.02C3.15 8.47 3.89 8.16 4.66 8.16L9.33 8.16C10.1 8.16 10.84 8.47 11.39 9.02C11.94 9.56 12.25 10.3 12.25 11.08L12.25 12.25C12.25 12.57 11.98 12.83 11.66 12.83C11.34 12.83 11.08 12.57 11.08 12.25L11.08 11.08C11.08 10.61 10.89 10.17 10.57 9.84C10.24 9.51 9.79 9.33 9.33 9.33L4.66 9.33C4.2 9.33 3.75 9.51 3.42 9.84C3.1 10.17 2.91 10.61 2.91 11.08L2.91 12.25C2.91 12.57 2.65 12.83 2.33 12.83C2.01 12.83 1.75 12.57 1.75 12.25L1.75 11.08C1.75 10.3 2.05 9.56 2.6 9.02Z" fill="#FFFFFF" fill-opacity="1.000000" fill-rule="evenodd"/>
		<path id="Vector (Stroke)" d="M7 2.33C6.03 2.33 5.25 3.11 5.25 4.08C5.25 5.04 6.03 5.83 7 5.83C7.96 5.83 8.75 5.04 8.75 4.08C8.75 3.11 7.96 2.33 7 2.33ZM4.08 4.08C4.08 2.47 5.38 1.16 7 1.16C8.61 1.16 9.91 2.47 9.91 4.08C9.91 5.69 8.61 6.99 7 6.99C5.38 6.99 4.08 5.69 4.08 4.08Z" fill="#FFFFFF" fill-opacity="1.000000" fill-rule="evenodd"/>
	</g>
</svg>
